<?xml version="1.0" encoding="utf-8"?>
<!-- Generator: Adobe Illustrator 16.0.0, SVG Export Plug-In . SVG Version: 6.00 Build 0)  -->
<!DOCTYPE svg PUBLIC "-//W3C//DTD SVG 1.1//EN" "http://www.w3.org/Graphics/SVG/1.1/DTD/svg11.dtd">
<svg version="1.1" id="Layer_1" xmlns="http://www.w3.org/2000/svg" xmlns:xlink="http://www.w3.org/1999/xlink" x="0px" y="0px"
	 width="56.135px" height="62.857px" viewBox="0 0 56.135 62.857" enable-background="new 0 0 56.135 62.857" xml:space="preserve">
<path fill="#FF674D" d="M19.887,23.131c0,0.282,0.282,0.705,0.563,0.847l42.878,23.836c0.563,0.282,0.563,1.269,0,1.691
	L20.45,73.061c-0.422,0.142-0.563,0.563-0.563,0.847v5.077c0,0.705,0.847,1.13,1.41,0.847l50.212-27.646l0,0l3.667-2.115
	c1.13-0.705,1.13-2.539,0-3.104l-3.667-2.115l0,0L21.297,17.208c-0.563-0.423-1.41,0.142-1.41,0.847V23.131z"/>
</svg>
