<?xml version="1.0" encoding="utf-8"?>
<!-- Generator: Adobe Illustrator 19.1.0, SVG Export Plug-In . SVG Version: 6.00 Build 0)  -->
<svg version="1.1" id="Layer_1" xmlns="http://www.w3.org/2000/svg" xmlns:xlink="http://www.w3.org/1999/xlink" x="0px" y="0px"
	 viewBox="0 0 404 123" enable-background="new 0 0 404 123" xml:space="preserve">
<g>
	<g id="XMLID_1029_">
		<g>
			<path id="XMLID_168_" fill="#43413F" d="M79.6481247,60.119709c0-16.6004524,12.4319382-26.589344,25.6550522-26.589344
				c12.9348679,0,20.6244965,7.6174011,22.9237518,16.5282173l-8.1203156,2.730629
				c-1.5087585-6.1801949-6.2517471-11.1385269-14.8034363-11.1385269c-8.4078979,0-16.8157959,6.1086388-16.8157959,18.4690247
				c0,11.9290199,8.1918793,18.2530022,16.887352,18.2530022c8.5516891,0,13.4384613-5.4619293,15.1632462-11.2107544
				l7.9049835,2.5868378c-2.299942,8.6239166-10.0611343,16.8880234-23.0682297,16.8880234
				C91.6493759,86.6368179,79.6481247,76.7194824,79.6481247,60.119709z"/>
			<path id="XMLID_166_" fill="#43413F" d="M141,86h-8V34h8v19.9395142c3-3.0904312,6.4333191-4.3838501,10.0989075-4.3838501
				C159.7221527,49.5556641,164,55.7358551,164,63.4248123V86h-8V64.8620224c0-4.3116226-2.2186584-7.7605171-7.4645538-7.7605171
				C143.9362488,57.1015053,141,60.5503998,141,65.005806V86z"/>
			<path id="XMLID_163_" fill="#43413F" d="M202.4639282,75.5698547
				c-1.8678894,6.1086349-7.4013672,11.0669632-15.8092651,11.0669632c-9.4859772,0-17.8938751-6.8991318-17.8938751-18.7559204
				c0-11.066967,8.1918793-18.3967934,17.0311432-18.3967934c10.7793884,0,17.103363,6.9518318,17.103363,18.0188026
				c0,1.3656464-0.1437836,2.4970932-0.2153473,2.4970932h-25.5834961c0.2160187,6,4.3838501,9.2881393,9.5582123,9.2881393
				c5.0298767,0,7.6173859-2.5774078,8.7670288-6.0269775L202.4639282,75.5698547z M194.4873962,64
				c-0.1437836-4-2.8744049-7.7611885-8.6232452-7.7611885c-5.2458954,0-8.2647705,3.7611885-8.5516815,7.7611885H194.4873962z"/>
			<path id="XMLID_161_" fill="#43413F" d="M220,45.962307V50h8v8h-8v28h-9V58h-6v-8h6v-4.2530365
				c0-7.8327446,5.2303314-12.5757332,12.4163666-12.5757332c2.0839233,0,4.5836334,0.4306908,4.5836334,0.7182655v7.1144791
				c0-0.1437874-1.3409271-0.3591309-2.9219208-0.3591309C222.8503723,40.6448441,220,41.6506844,220,45.962307z"/>
			<path id="XMLID_159_" fill="#43413F" d="M260.7701416,48.9805107c-0.5028992-3.1619911-3.1619873-7.8327446-9.9888763-7.8327446
				c-5.1743622,0-8.7677155,3.4495659-8.7677155,7.3298225c0,3.2342224,2.0123596,5.6772728,5.9648438,6.5393257l7.329834,1.5094376
				c8.9830627,1.7963409,13.7975769,7.4736137,13.7975769,14.6596451c0,7.9049835-6.3955383,15.4508209-18.036972,15.4508209
				c-12.9355316,0-18.9003906-8.3363419-19.6908875-15.6661606l8.0487671-2.299263
				c0.5029297,5.3174667,4.3116302,10.2042389,11.6421204,10.2042389c6.1079559,0,9.2699432-3.0904312,9.2699432-7.042923
				c0-3.3051071-2.4430237-5.9641724-6.826889-6.8984604l-7.1860352-1.5094376
				c-7.7611847-1.5809937-12.9355469-6.6831131-12.9355469-14.3005142c0-8.5516853,7.8327484-15.5939331,17.3187256-15.5939331
				c12.001236,0,16.6720123,7.3298225,17.8223114,13.0070953L260.7701416,48.9805107z"/>
			<path id="XMLID_157_" fill="#43413F" d="M286,50h7v8h-7v16.2042007c0,3.0904388,1.2000732,4.3838577,4.2904968,4.3838577
				c1.1496277,0,2.7095032-0.2153473,2.7095032-0.2875824v6.8991394c0,0.2153397-2.2866211,0.7904968-5.3048096,0.7904968
				C281.227417,85.9901123,277,82.1091766,277,75.5698547V58h-6v-8h1.6979675C276.4350891,50,278,48.1900139,278,45.1002541V40h8V50
				z"/>
			<path id="XMLID_154_" fill="#43413F" d="M329.6188354,75.5698547
				c-1.8685608,6.1086349-7.4013672,11.0669632-15.8092651,11.0669632c-9.4859619,0-17.8938599-6.8991318-17.8938599-18.7559204
				c0-11.066967,8.191864-18.3967934,17.0311279-18.3967934c10.7793884,0,17.103363,6.9518318,17.103363,18.0188026
				c0,1.3656464-0.1437683,2.4970932-0.215332,2.4970932h-25.5834961c0.2160034,6,4.3838501,9.2881393,9.558197,9.2881393
				c5.0298767,0,7.6174011-2.5774078,8.7670288-6.0269775L329.6188354,75.5698547z M321.6423035,64
				c-0.1437683-4-2.8743896-7.7611885-8.62323-7.7611885c-5.2459106,0-8.2640991,3.7611885-8.5516968,7.7611885H321.6423035z"/>
			<path id="XMLID_151_" fill="#43413F" d="M335,99V50h8v5.3044891c2-3.0181999,5.7733154-5.5334816,11.1629944-5.5334816
				c10.348053,0,16.1813354,7.9049759,16.1813354,18.2530022c0,10.4924927-6.5215759,18.3967896-16.5827026,18.3967896
				c-5.0305481,0-8.7616272-2.1554718-10.7616272-4.814537V99H335z M352.6065063,57.1730614
				c-5.4612732,0-9.4137573,4.3116226-9.4137573,10.8509483c0,6.6837921,3.9524841,10.9954147,9.4137573,10.9954147
				c5.5334778,0,9.4137268-4.3116226,9.4137268-10.9954147C362.0202332,61.484684,358.2115479,57.1730614,352.6065063,57.1730614z"
				/>
			<path id="XMLID_149_" fill="#43413F" d="M380.4073792,74.0604172c0.2875671,3.1619873,2.6590576,5.9648438,7.1144714,5.9648438
				c3.4495544,0,5.2459106-1.8685684,5.2459106-4.0240402c0-1.868576-1.2934265-3.3057785-4.096283-3.8809357l-5.1736755-1.1496277
				c-6.1802063-1.365654-9.4144287-5.3896942-9.4144287-10.2042389c0-6.1086388,5.6057129-11.2823143,12.8639832-11.2823143
				c9.7728882,0,12.9348755,6.323307,13.5100403,9.7728767l-7.0429382,2.0123596
				c-0.2875671-2.0123596-1.7963257-5.2459068-6.4671021-5.2459068c-2.9466248,0-5.0305481,1.8685684-5.0305481,4.024044
				c0,1.8685722,1.3649597,3.2342224,3.5211182,3.6649094l5.3181458,1.0780792
				c6.6108704,1.4372025,10.0604553,5.4612503,10.0604553,10.6355972c0,5.3181381-4.3116455,11.2107544-13.2224426,11.2107544
				c-10.1326904,0-14.0136108-6.611557-14.4449768-10.5640411L380.4073792,74.0604172z"/>
		</g>
	</g>
	<g>
		<rect id="XMLID_1028_" x="1" y="12" fill="#FF674D" width="16" height="22"/>
		<rect id="XMLID_1027_" x="21" y="12" fill="#FF674D" width="16" height="22"/>
		<rect id="XMLID_1026_" x="41" y="12" fill="#FF674D" width="17" height="22"/>
		<rect id="XMLID_1025_" x="1" y="38" fill="#FF674D" width="16" height="21"/>
		<rect id="XMLID_1024_" x="21" y="38" fill="#FF674D" width="16" height="21"/>
		<rect id="XMLID_1023_" x="41" y="38" fill="#FF674D" width="17" height="21"/>
		<rect id="XMLID_1022_" x="1" y="64" fill="#FF674D" width="16" height="21"/>
		<rect id="XMLID_1021_" x="21" y="64" fill="#FF674D" width="16" height="21"/>
		<rect id="XMLID_1020_" x="41" y="64" fill="#FF674D" width="17" height="21"/>
		<rect id="XMLID_1019_" x="1" y="89" fill="#FF674D" width="16" height="22"/>
		<rect id="XMLID_1018_" x="21" y="89" fill="#FF674D" width="16" height="22"/>
		<rect id="XMLID_1017_" x="41" y="89" fill="#FF674D" width="17" height="22"/>
	</g>
</g>
</svg>
