<?xml version="1.0" encoding="utf-8"?>
<!-- Generator: Adobe Illustrator 16.0.0, SVG Export Plug-In . SVG Version: 6.00 Build 0)  -->
<!DOCTYPE svg PUBLIC "-//W3C//DTD SVG 1.1//EN" "http://www.w3.org/Graphics/SVG/1.1/DTD/svg11.dtd">
<svg version="1.1" id="Layer_1" xmlns="http://www.w3.org/2000/svg" xmlns:xlink="http://www.w3.org/1999/xlink" x="0px" y="0px"
	 width="96.475px" height="79.408px" viewBox="0 0 96.475 79.408" enable-background="new 0 0 96.475 79.408" xml:space="preserve">
<g>
	<path fill="#FF674D" d="M1.692,6.488v1.975c0,1.411,1.128,2.539,2.539,2.539h91.537c1.411,0,2.396-1.128,2.396-2.398V6.488
		c0-1.41-1.128-2.397-2.396-2.397H4.231C2.821,4.09,1.692,5.219,1.692,6.488z"/>
</g>
<path fill="#FF674D" d="M4.231,29.055h91.537c1.411,0,2.396-1.128,2.396-2.398v-1.975c0-1.41-1.128-2.397-2.396-2.397H4.231
	c-1.411,0-2.398,1.128-2.398,2.397v1.975C1.692,27.927,2.821,29.055,4.231,29.055z"/>
<path fill="#FF674D" d="M4.231,47.25h91.537c1.411,0,2.396-1.128,2.396-2.397v-1.975c0-1.411-1.128-2.398-2.396-2.398H4.231
	c-1.411,0-2.398,1.129-2.398,2.398v1.975C1.692,46.121,2.821,47.25,4.231,47.25z"/>
<path fill="#FF674D" d="M4.231,65.444h91.537c1.411,0,2.396-1.129,2.396-2.397v-1.976c0-1.409-1.128-2.397-2.396-2.397H4.231
	c-1.411,0-2.398,1.13-2.398,2.397v1.976C1.692,64.315,2.821,65.444,4.231,65.444z"/>
<path fill="#FF674D" d="M4.231,83.498h91.537c1.411,0,2.396-1.129,2.396-2.397v-1.976c0-1.41-1.128-2.397-2.396-2.397H4.231
	c-1.411,0-2.398,1.129-2.398,2.397v1.976C1.692,82.369,2.821,83.498,4.231,83.498z"/>
</svg>
